<svg width="186" height="105" viewBox="0 0 186 105" fill="rgba(4, 30, 66, 0.75)" xmlns="http://www.w3.org/2000/svg">
    <path d="M167.435 72.905C165.958 58.2983 153.979 46.9117 139.419 46.9117C139.268 46.9117 139.128 46.9233 138.989 46.9233C138.553 32.4742 127.067 20.895 112.937 20.895C111.879 20.895 110.839 20.9708 109.81 21.0933C107.252 9.03 96.8304 0 84.3568 0C74.1094 0 65.2569 6.09 60.9964 14.9508C58.5668 12.9617 55.5036 11.7717 52.1614 11.7717C44.3029 11.7717 37.9324 18.34 37.9324 26.4367C37.9324 29.5925 38.9089 32.5092 40.5538 34.9008C34.9622 38.5058 30.6842 44.0767 28.6324 50.6742C27.7896 50.5925 26.9351 50.5458 26.0691 50.5458C11.6715 50.5458 0 62.5742 0 77.4083C0 92.2483 11.6715 105 26.0691 105H171.097C179.327 105 186 96.2675 186 87.7858C186 79.2983 179.327 72.4208 171.097 72.4208C169.83 72.4208 168.609 72.6017 167.435 72.905Z"/>
</svg>
