<svg xmlns="http://www.w3.org/2000/svg" viewBox="0 0 24 24">
<!-- Apache License, Version 2.0: https://opensource.org/license/apache-2-0/ -->
<!-- author: Remix Icon https://github.com/Remix-Design/RemixIcon/, modified by https://github.com/koebel -->
    <g>
        <path fill="none" d="M0 0h24v24H0z"/>
        <path fill-rule="nonzero" d="M20,3 C20.552,3 21,3.448 21,4 L21,20 C21,20.552 20.552,21 20,21 L4,21 C3.448,21 3,20.552 3,20 L3,4 C3,3.448 3.448,3 4,3 L20,3 Z M19,5 L5,5 L5,19 L19,19 L19,5 Z M12,6 L15,9 L13,9 L13,15 L15,15 L12,18 L9,15 L11,15 L11,9 L9,9 L12,6 Z"/>
    </g>
</svg>
