<?xml version="1.0" encoding="UTF-8"?>
<svg xmlns="http://www.w3.org/2000/svg" version="1.1" viewBox="0 0 384 512">
<!-- Copyright: Bayerisches Staatsministerium für Unterricht und Kultus. Created by: Almato AG
This icon is licensed under the GNU Affero General Public License, Version 3.
See https://www.gnu.org/licenses/agpl-3.0.html for more information. -->
  <defs>
    <style>
      .cls-1 {
        fill: #917115;
        fill-rule: evenodd;
        stroke-width: 0px;
      }
    </style>
  </defs>
  <g id="Ebene_1" data-name="Ebene 1" focusable="false">
    <path class="cls-1" d="M224,136V0H24C10.7,0,0,10.7,0,24v464c0,13.3,10.7,24,24,24h336c13.3,0,24-10.7,24-24V160h-136c-13.2,0-24-10.8-24-24ZM384,121.9v6.1h-128V0h6.1c6.4,0,12.5,2.5,17,7l97.9,98c4.5,4.5,7,10.6,7,16.9ZM222.1,216.3c-5.6-1-11,2.8-12,8.4-1,5.6,2.8,11,8.4,12s11-2.8,12-8.4c1-5.6-2.8-11-8.4-12ZM197.3,222.5c2.2-12.7,14.4-21.2,27.1-19,12.7,2.2,21.2,14.4,19,27.1-2.2,12.2-13.5,20.6-25.6,19.2l-18.2,38.1c-1.5,3.2-5.4,4.6-8.7,3.1-3.2-1.5-4.6-5.4-3.1-8.7l17.9-37.5c-6.4-5.2-9.9-13.6-8.4-22.3ZM120.4,269.9c-6.2,0-11.3,5-11.3,11.3v143.2c0,6.2,5,11.3,11.3,11.3h95.1l-.2-35.2c0-13.4,10.8-24.4,24.3-24.4h35.2v-94.9c0-6.2-5-11.3-11.3-11.3h-34.4c-3.6,0-6.5-2.9-6.5-6.5s2.9-6.5,6.5-6.5h34.4c13.4,0,24.3,10.9,24.3,24.3v104.1l-63.1,63.4h-104.4c-13.4,0-24.3-10.9-24.3-24.3v-143.2c0-13.4,10.9-24.3,24.3-24.3h56.7c3.6,0,6.5,2.9,6.5,6.5s-2.9,6.5-6.5,6.5h-56.7ZM265.7,389h-26.1c-6.2,0-11.3,5.1-11.3,11.3v26.1c.1,0,37.3-37.4,37.3-37.4ZM140.8,330.4c0-3.6,2.9-6.5,6.5-6.5h89.3c3.6,0,6.5,2.9,6.5,6.5s-2.9,6.5-6.5,6.5h-89.3c-3.6,0-6.5-2.9-6.5-6.5ZM140.8,367.6c0-3.6,2.9-6.5,6.5-6.5h58.6c3.6,0,6.5,2.9,6.5,6.5s-2.9,6.5-6.5,6.5h-58.6c-3.6,0-6.5-2.9-6.5-6.5Z"/>
  </g>
</svg>
