<svg width="384" height="512" viewBox="0 0 384 512" fill="none" xmlns="http://www.w3.org/2000/svg">
<!-- Copyright: Bayerisches Staatsministerium für Unterricht und Kultus. Created by: Almato AG Copyright (C) 2024 Max Mustermann
This icon is licensed under the GNU Affero General Public License, Version 3.
See https://www.gnu.org/licenses/agpl-3.0.html for more information. -->
<path d="M202.553 356.585C204.686 368.605 217.479 378.622 226.008 376.619C232.404 376.619 240.933 370.609 249.461 358.588C257.99 346.567 262.254 332.543 264.386 316.516C253.726 318.519 240.933 320.523 230.272 326.533C206.818 338.554 200.421 348.571 202.553 356.585Z" fill="#975FA8"/>
<path d="M103.836 16H23.4536C10.6607 16 0 26.0172 0 38.0378V474.787C0 487.008 10.6607 496.825 23.4536 496.825H360.333C373.339 496.825 383.787 486.808 383.787 474.787C383.787 474.787 383.787 381.427 383.787 279.051L103.836 16ZM291.891 314.512H287.84C285.708 334.547 277.179 354.581 266.519 368.605C253.726 386.636 240.933 394.65 226.008 396.653C204.686 396.653 183.365 376.619 181.233 356.585C179.1 338.554 194.026 322.526 221.743 306.499C236.668 296.481 251.594 294.678 264.386 292.675C263.534 286.665 262.681 280.454 260.122 274.444C254.152 260.82 240.08 248.199 228.14 261.221C220.891 269.034 219.611 270.437 219.611 270.437C214.494 275.846 208.951 282.457 202.554 288.468C181.233 310.505 172.704 318.519 168.44 320.523L166.308 322.526C155.647 330.54 121.532 356.585 95.9467 344.564C81.0216 336.55 78.8895 320.523 78.8895 316.516C78.8895 306.499 83.1538 292.475 115.136 258.416L130.061 244.392C140.722 232.371 144.986 230.368 144.986 224.358C144.986 218.347 140.722 214.34 138.59 212.337C130.061 208.33 117.268 210.334 108.74 220.351C104.475 224.358 98.0788 224.358 93.8145 222.354C89.5502 218.347 87.4181 212.337 91.6824 208.33C106.607 190.299 134.325 184.289 151.383 196.309C162.043 202.32 166.308 214.34 166.308 224.358C166.308 238.382 157.779 246.395 144.986 258.416L130.061 272.44C117.268 286.464 98.0788 306.499 100.211 316.516C100.211 322.526 102.343 326.533 106.607 328.536C113.004 332.543 134.325 320.523 149.25 308.502L151.383 306.499C155.647 302.492 164.175 296.481 183.365 276.447C189.761 268.433 196.158 262.423 200.422 258.416C215.347 240.385 223.876 234.375 234.536 234.375C260.122 234.375 284.002 254.209 286.774 291.673C301.699 291.673 304.684 296.682 304.684 306.298C304.684 311.908 298.714 314.312 291.891 314.512Z" fill="#975FA8"/>
<path d="M270.992 62.2782C270.992 60.8758 270.992 59.4734 270.352 58.071C269.713 56.6686 268.646 55.2662 267.367 53.8638L257.772 44.8483L246.259 55.6669L256.067 64.8827C257.559 66.2851 259.052 67.0865 260.544 67.6875C262.037 68.2885 263.529 68.2885 265.022 68.0882C266.514 67.8879 267.794 67.0865 269.073 65.8844C270.139 64.8827 270.779 63.4803 270.992 62.2782Z" fill="#FF0000"/>
<path d="M348.389 134.604C348.389 134.604 358.836 113.968 359.05 113.567C358.623 113.567 336.449 123.384 336.449 123.384L348.389 134.604Z" fill="#FF0000"/>
<path d="M274.403 52.4632C275.683 52.8639 276.962 52.8639 278.454 52.4632C279.947 52.0625 280.8 51.6618 281.866 50.6601C283.572 49.0573 284.211 47.4546 283.998 45.6515C283.998 43.8484 282.932 41.845 281.013 40.0419L272.058 31.6274L261.397 41.6446L270.779 50.4597C271.845 51.4615 273.124 52.2628 274.403 52.6635V52.4632Z" fill="#FF0000"/>
<path d="M383.787 37.8375C383.787 25.6165 373.339 16 360.333 16H149.25L384 236.579C384 155.239 384 75.3018 384 38.0378L383.787 37.8375ZM263.107 73.2983C261.401 73.2983 259.696 72.6973 257.777 71.8959C256.071 71.0946 254.365 69.8925 252.66 68.4901L238.801 55.4677L271.636 24.6148L285.068 37.2364C286.987 39.0395 288.267 40.8426 289.119 42.8461C289.972 44.8495 289.972 46.6526 289.546 48.656C289.119 50.4591 288.053 52.2622 286.348 53.865C284.642 55.4677 282.51 56.4695 280.164 56.8701C278.459 56.8701 276.753 56.8701 275.047 56.0688C275.687 57.2708 276.326 58.4729 276.54 59.8753C276.966 61.6784 276.54 63.4815 276.326 65.0842C276.113 66.687 274.834 68.2897 273.341 69.6921C271.849 71.0946 270.356 72.0963 268.651 72.6973C266.945 73.2983 265.239 73.4987 263.32 73.4987L263.107 73.2983ZM292.957 99.5434L289.333 102.949L269.504 84.3172L302.339 53.4643L322.168 72.0963L318.543 75.5021L302.339 60.276L291.678 70.2932L305.324 83.1152L301.699 86.521L288.053 73.699L276.54 84.5176L292.744 99.7437L292.957 99.5434ZM306.177 118.776L302.552 115.371L331.976 87.7231L322.594 78.908L326.219 75.5021L349.033 96.9389L345.408 100.345L335.6 91.1289L306.177 118.776ZM344.555 154.838L340.504 151.032L346.048 139.211L331.336 125.388L318.756 130.597L314.918 126.99L360.333 107.958L364.597 111.965L344.129 154.638L344.555 154.838Z" fill="#FF0000"/>
</svg>
