<?xml version="1.0" encoding="utf-8"?>
<svg version="1.1" id="Ebene_1" xmlns="http://www.w3.org/2000/svg" xmlns:xlink="http://www.w3.org/1999/xlink" x="0px" y="0px"
	 viewBox="0 0 224 122" style="enable-background:new 0 0 224 122;" xml:space="preserve">
<style type="text/css">
	.st0{fill:#FFFFFF;}
</style>
<path id="Shape_2_" class="st0" d="M49.3,38.3c-1.3-2.2-2-4.8-2-7.6c0-8.5,6.9-15.3,15.5-15.3c3.2,0,6.1,0.9,8.5,2.6
	c-1.8,4.1-2.8,8.5-2.8,13.3c0,0.9,0,1.7,0.1,2.6c-0.6,0-1.2,0-1.8,0C60.4,33.8,54.5,35.5,49.3,38.3L49.3,38.3z M45.9,97.8
	c-9-6.4-14.8-16.9-14.8-28.6c0-3,0.4-5.9,1.1-8.7c-0.3,0-0.6,0-0.9,0c-16.4,0-29.7,13.2-29.7,29.5c0,16.2,13.3,29.5,29.7,29.5
	c6.3,0,12.1-1.9,16.8-5.2c-2-3-3.1-6.7-3.1-10.5C45,101.6,45.3,99.6,45.9,97.8L45.9,97.8z M47.2,94.6c2.7-5.1,7.5-8.8,13.3-10.1
	c0.5-0.1,1.1-0.2,1.7-0.3c0.6-0.1,1.1-0.1,1.7-0.1c0.3,0,0.5,0,0.8,0c0.9,0,1.8,0.1,2.7,0.2c-0.3-2-0.4-4-0.4-6.1
	c0-9.9,3.3-19.1,8.8-26.5c-1.3-1.5-2.4-3.2-3.3-5c-0.3-0.5-0.5-1-0.8-1.5c-0.2-0.5-0.5-1-0.7-1.5c-0.9-2.1-1.5-4.3-1.9-6.5
	c-0.8-0.1-1.5-0.1-2.3-0.1c-5.6,0-10.9,1.4-15.4,3.9c-0.5,0.3-1,0.6-1.5,0.9c-0.5,0.3-1,0.6-1.4,0.9c-5.2,3.6-9.3,8.7-11.7,14.7
	c-0.2,0.5-0.4,1.1-0.6,1.6c-0.2,0.5-0.3,1.1-0.5,1.6c-0.7,2.7-1.1,5.5-1.1,8.4C34.4,79.5,39.5,88.8,47.2,94.6L47.2,94.6z
	 M151.4,56.9c4.3-2.2,9.1-3.6,14.2-4C164.3,37.9,151.6,26,136,26c-0.6,0-1.2,0-1.8,0.1c0.3,1.7,0.4,3.4,0.4,5.2c0,2.7-0.3,5.4-1,7.9
	C141.2,43.3,147.3,49.5,151.4,56.9L151.4,56.9z M72.2,35.9c0.1,0.6,0.2,1.2,0.3,1.8c0.3,1.3,0.7,2.6,1.2,3.9
	c0.2,0.6,0.4,1.1,0.7,1.7c0.2,0.5,0.5,1.1,0.8,1.6c0.8,1.5,1.7,2.9,2.7,4.3c2.1-2.4,4.4-4.5,6.9-6.4c0.5-0.4,1-0.7,1.5-1
	c0.5-0.3,1-0.7,1.5-1c6.8-4.3,14.9-6.9,23.6-7c0.2,0,0.4,0,0.6,0c0.6,0,1.1,0,1.7,0c0.8,0,1.5,0.1,2.3,0.1
	c5.2,0.5,10.1,1.8,14.7,3.8c0.5-2.1,0.7-4.2,0.7-6.4c0-1.6-0.1-3.2-0.4-4.8c-0.1-0.6-0.2-1.1-0.3-1.6c-0.1-0.5-0.3-1.1-0.4-1.6
	c-3.6-12.3-15-21.4-28.6-21.4c-11.2,0-21,6.2-26,15.3c-0.3,0.5-0.6,1-0.8,1.5c-0.3,0.5-0.5,1.1-0.7,1.7c-1.4,3.4-2.2,7.1-2.2,11
	c0,1,0.1,2,0.1,2.9C72,34.8,72.1,35.4,72.2,35.9L72.2,35.9z M206.2,85.8c-0.9,0-1.8,0.1-2.6,0.2c0,0.7,0.1,1.5,0.1,2.2
	c0,9.4-3.7,17.9-9.8,24.3c3,3.4,7.4,5.6,12.3,5.6c9,0,16.3-7.2,16.3-16.1C222.5,93,215.2,85.8,206.2,85.8L206.2,85.8z M200.2,86.9
	c0-0.6-0.1-1.2-0.1-1.7c-0.1-0.6-0.1-1.1-0.2-1.7c-2.3-15-15.1-26.7-30.8-27.2c-0.4,0-0.8,0-1.2,0c-0.2,0-0.3,0-0.5,0
	c-0.6,0-1.1,0-1.7,0.1c-4.6,0.3-8.9,1.6-12.8,3.6c2.3,5.1,3.7,10.7,4,16.6c0,0.6,0,1.2,0,1.8c0,0.2,0,0.3,0,0.5c0,0.8,0,1.5-0.1,2.2
	c-0.7,11.1-5.5,21.1-12.9,28.6c5.9,6.5,14.5,10.6,24,10.6c8.2,0,15.7-3.1,21.4-8.1c0.4-0.4,0.9-0.8,1.3-1.2c0.4-0.4,0.8-0.8,1.2-1.3
	c5.2-5.7,8.4-13.2,8.4-21.5C200.3,87.8,200.2,87.3,200.2,86.9L200.2,86.9z M73.9,102.1c-0.3-0.5-0.6-1-0.9-1.5
	c-2.3-3.9-4-8.2-5-12.7c-1.1-0.2-2.2-0.3-3.3-0.3c-0.1,0-0.2,0-0.4,0c-0.6,0-1.1,0.1-1.7,0.1c-0.6,0.1-1.1,0.2-1.7,0.3
	c-4.8,1.1-8.8,4.3-10.9,8.6c-0.3,0.5-0.5,1-0.7,1.6c-0.2,0.5-0.4,1.1-0.5,1.6c-0.3,1.3-0.5,2.6-0.5,3.9c0,3.1,0.9,6,2.4,8.5
	c0.3,0.5,0.6,0.9,1,1.4c0.3,0.4,0.7,0.9,1.1,1.3c3,3.1,7.1,5,11.8,5c6.9,0,12.8-4.3,15.2-10.3c-1.8-1.8-3.5-3.8-4.9-5.9
	C74.6,103.1,74.2,102.6,73.9,102.1L73.9,102.1z M153.4,81.4c0.1-0.7,0.1-1.4,0.1-2.1c0-0.4,0-0.7,0-1.1c0-5.9-1.3-11.5-3.6-16.6
	c-0.2-0.5-0.5-1-0.7-1.5c-0.2-0.5-0.5-1-0.8-1.5c-3.7-6.7-9.2-12.3-15.8-16.1c-0.5-0.3-1-0.6-1.5-0.8c-0.5-0.3-1-0.5-1.5-0.8
	c-5.1-2.4-10.8-3.8-16.8-3.9c-0.3,0-0.6,0-1,0c-0.4,0-0.8,0-1.2,0c-0.7,0-1.4,0.1-2.1,0.1c-6.6,0.5-12.7,2.5-18.1,5.7
	c-0.5,0.3-1,0.6-1.5,0.9c-0.5,0.3-1,0.7-1.4,1c-2.8,2-5.3,4.3-7.5,6.9c-0.4,0.4-0.7,0.9-1.1,1.3c-0.3,0.4-0.7,0.9-1,1.3
	c-4.9,6.7-7.7,15-7.7,23.9c0,2.4,0.2,4.7,0.6,6.9c0.1,0.6,0.2,1.3,0.4,1.9c0.2,0.7,0.3,1.4,0.5,2.1c1,3.8,2.6,7.3,4.6,10.6
	c0.3,0.5,0.6,1,0.9,1.5c0.3,0.5,0.7,1,1,1.4c0.8,1.1,1.6,2.1,2.5,3c0.5,0.5,1,1.1,1.5,1.6c0.5,0.5,0.9,0.9,1.4,1.4
	c7.4,6.8,17.4,11,28.2,11c10.5,0,20.1-3.9,27.4-10.2c0.4-0.4,0.8-0.7,1.2-1.1c0.4-0.4,0.8-0.8,1.2-1.2c6.1-6.2,10.2-14.3,11.4-23.4
	C153.3,82.9,153.4,82.1,153.4,81.4L153.4,81.4z"/>
</svg>
