<?xml version="1.0" encoding="utf-8"?>
<!-- Generator: Adobe Illustrator 15.0.2, SVG Export Plug-In  -->
<!DOCTYPE svg PUBLIC "-//W3C//DTD SVG 1.1//EN" "http://www.w3.org/Graphics/SVG/1.1/DTD/svg11.dtd" [
	<!ENTITY ns_flows "http://ns.adobe.com/Flows/1.0/">
]>
<svg version="1.1"
	 xmlns="http://www.w3.org/2000/svg" xmlns:xlink="http://www.w3.org/1999/xlink" xmlns:a="http://ns.adobe.com/AdobeSVGViewerExtensions/3.0/"
	 x="0px" y="0px" width="148px" height="163px" viewBox="-9.188 -10.103 148 163"
	 overflow="visible" enable-background="new -9.188 -10.103 148 163" xml:space="preserve">
<defs>
</defs>
<polygon fill="#78B6E4" points="62.74,70.638 62.74,103.435 91.417,90.655 91.417,55.261 62.526,68.929 "/>
<path fill="#4267B1" d="M63.738,142.564c-17.179,0-30.642-31.312-30.642-71.282C33.097,31.312,46.56,0,63.738,0
	s30.643,31.312,30.643,71.282C94.381,111.252,80.917,142.564,63.738,142.564z M63.738,3.654c-14.624,0-26.979,30.968-26.979,67.628
	s12.355,67.626,26.979,67.626c14.626,0,26.985-30.966,26.985-67.626S78.364,3.654,63.738,3.654z"/>
<path fill="#4267B1" d="M23.265,115.81c-10.562,0-17.934-3.106-21.314-8.987c-8.564-14.897,11.865-42.175,46.518-62.102
	c19.56-11.251,40.398-17.97,55.746-17.97c10.561,0,17.936,3.106,21.317,8.989c4.227,7.354,1.524,17.944-7.616,29.823
	C109.113,77.013,95.3,88.475,79.016,97.836C59.451,109.091,38.616,115.81,23.265,115.81z M104.214,30.405
	c-14.734,0-34.893,6.536-53.931,17.484C18.511,66.164-2.17,92.316,5.117,105.005c3.405,5.909,11.746,7.15,18.147,7.15
	c14.733,0,34.897-6.538,53.932-17.49c15.875-9.128,29.309-20.258,37.82-31.32c8.064-10.484,10.735-19.881,7.344-25.787
	C118.959,31.648,110.611,30.405,104.214,30.405z"/>
<path fill="#4267B1" d="M104.216,115.81h-0.002c-15.348,0-36.19-6.719-55.746-17.974C32.179,88.475,18.363,77.013,9.562,65.563
	C0.426,53.685-2.28,43.094,1.95,35.74c3.381-5.883,10.753-8.989,21.314-8.989c15.352,0,36.187,6.719,55.751,17.97
	c34.647,19.927,55.079,47.204,46.516,62.102C122.149,112.703,114.774,115.81,104.216,115.81z M23.265,30.405
	c-6.401,0-14.742,1.243-18.147,7.152c-3.39,5.906-0.716,15.303,7.343,25.787c8.518,11.062,21.945,22.192,37.823,31.32
	c19.032,10.952,39.192,17.49,53.931,17.49h0.002c6.403,0,14.743-1.241,18.145-7.15c7.295-12.688-13.39-38.841-45.164-57.115
	C58.162,36.941,37.998,30.405,23.265,30.405z"/>
<polygon fill="#27AAE1" points="64.634,38.817 35.683,54.381 62.361,69.858 90.491,54.333 "/>
<path fill="#4267B1" d="M62.361,71.66c-0.313,0-0.621-0.081-0.905-0.241L34.773,55.947c-0.562-0.329-0.906-0.938-0.897-1.589
	c0.012-0.658,0.377-1.253,0.953-1.564l28.949-15.565c0.553-0.302,1.237-0.289,1.779,0.048l25.859,15.512
	c0.55,0.334,0.89,0.932,0.877,1.579c-0.012,0.645-0.363,1.24-0.938,1.544l-28.12,15.527C62.962,71.585,62.664,71.66,62.361,71.66z
	 M39.38,54.441l23.004,13.347l24.493-13.521L64.58,40.896L39.38,54.441z"/>
<rect x="60.875" y="69.833" fill="#4267B1" width="3.65" height="32.216"/>
</svg>
