<?xml version="1.0" encoding="utf-8"?>
<!-- Generator: Adobe Illustrator 15.0.2, SVG Export Plug-In  -->
<!DOCTYPE svg PUBLIC "-//W3C//DTD SVG 1.1//EN" "http://www.w3.org/Graphics/SVG/1.1/DTD/svg11.dtd" [
	<!ENTITY ns_flows "http://ns.adobe.com/Flows/1.0/">
]>
<svg version="1.1"
	 xmlns="http://www.w3.org/2000/svg" xmlns:xlink="http://www.w3.org/1999/xlink" xmlns:a="http://ns.adobe.com/AdobeSVGViewerExtensions/3.0/"
	 x="0px" y="0px" width="252px" height="122px" viewBox="-3.071 -28.655 252 122"
	 overflow="visible" enable-background="new -3.071 -28.655 252 122" xml:space="preserve">
<defs>
</defs>
<polygon fill="#78B6E4" points="33.847,38.36 33.847,55.915 49.767,49.075 49.767,30.13 33.729,37.444 "/>
<path fill="#FFFFFF" d="M34.289,76.691c-9.242,0-16.483-16.843-16.483-38.346C17.806,16.845,25.047,0,34.289,0
	c9.24,0,16.482,16.845,16.482,38.346C50.771,59.849,43.529,76.691,34.289,76.691z M34.289,1.966
	c-7.868,0-14.517,16.657-14.517,36.38s6.648,36.38,14.517,36.38c7.866,0,14.515-16.657,14.515-36.38S42.155,1.966,34.289,1.966z"/>
<path fill="#FFFFFF" d="M12.516,62.298c-5.683,0-9.647-1.669-11.467-4.834c-4.607-8.014,6.382-22.688,25.024-33.407
	c10.521-6.051,21.732-9.666,29.989-9.666c5.681,0,9.646,1.669,11.467,4.835c2.272,3.956,0.822,9.654-4.098,16.045
	c-4.733,6.159-12.165,12.322-20.925,17.36C31.981,58.684,20.772,62.298,12.516,62.298z M56.062,16.356
	c-7.927,0-18.771,3.516-29.015,9.406C9.958,35.593-1.167,49.661,2.753,56.487c1.831,3.18,6.32,3.846,9.763,3.846
	c7.925,0,18.771-3.516,29.011-9.409c8.541-4.91,15.768-10.896,20.347-16.85c4.338-5.639,5.774-10.693,3.95-13.873
	C63.995,17.025,59.504,16.356,56.062,16.356z"/>
<path fill="#FFFFFF" d="M56.063,62.298L56.063,62.298c-8.258,0-19.471-3.614-29.99-9.667C17.31,47.593,9.88,41.43,5.145,35.271
	C0.229,28.88-1.227,23.182,1.049,19.226c1.819-3.166,5.784-4.835,11.467-4.835c8.257,0,19.466,3.615,29.991,9.666
	c18.637,10.72,29.629,25.394,25.022,33.407C65.709,60.629,61.743,62.298,56.063,62.298z M12.516,16.356
	c-3.442,0-7.932,0.669-9.763,3.845c-1.824,3.18-0.386,8.234,3.951,13.873c4.582,5.953,11.804,11.939,20.344,16.85
	c10.24,5.894,21.085,9.409,29.015,9.409h0.001c3.443,0,7.932-0.666,9.76-3.846c3.924-6.826-7.203-20.895-24.297-30.725
	C31.287,19.872,20.44,16.356,12.516,16.356z"/>
<polygon fill="#27AAE1" points="34.816,20.646 19.294,29.13 33.599,37.566 48.683,29.104 "/>
<path fill="#FFFFFF" d="M33.599,38.549c-0.167,0-0.333-0.044-0.484-0.132l-14.308-8.434c-0.303-0.18-0.486-0.512-0.481-0.867
	c0.006-0.357,0.201-0.681,0.512-0.852l15.521-8.485c0.297-0.163,0.664-0.156,0.955,0.026l13.865,8.457
	c0.295,0.181,0.478,0.507,0.471,0.86c-0.007,0.351-0.195,0.674-0.503,0.841l-15.078,8.464C33.92,38.509,33.762,38.549,33.599,38.549
	z M21.275,29.163l12.336,7.274l13.134-7.369L34.789,21.78L21.275,29.163z"/>
<rect x="32.746" y="37.566" fill="#FFFFFF" width="1.965" height="16.848"/>
<path fill="#FFFFFF" d="M105.388,50.836c-2.306,0.958-4.705,1.43-7.202,1.43c-3.89,0-7.055-1.303-9.509-3.917
	c-2.446-2.604-3.674-6.009-3.674-10.217c0-4.612,1.328-8.309,3.984-11.093c2.657-2.786,6.031-4.176,10.129-4.176
	c2.187,0,4.272,0.353,6.271,1.054v2.082c-1.999-0.899-4.099-1.352-6.309-1.352c-3.566,0-6.466,1.217-8.706,3.631
	c-2.231,2.417-3.345,5.638-3.345,9.657c0,3.87,1.062,6.925,3.198,9.167c2.137,2.239,4.835,3.362,8.121,3.362
	c2.612,0,4.962-0.512,7.04-1.527V50.836z"/>
<path fill="#FFFFFF" d="M111.711,51.771V23.344h13.282v1.804h-11.32v11.401h10.508v1.782h-10.508v11.654h11.971v1.785H111.711z"/>
<path fill="#FFFFFF" d="M146.558,51.771l-3.786-8.326c-0.779-1.716-1.562-2.868-2.341-3.457c-0.774-0.588-1.757-0.885-2.933-0.885
	h-3.526v12.668h-1.963V23.344h7.885c2.519,0,4.488,0.676,5.92,2.031c1.433,1.354,2.156,3.144,2.156,5.359
	c0,2.05-0.59,3.762-1.77,5.136c-1.172,1.378-2.819,2.262-4.932,2.657v0.081c1.122,0.451,2.218,1.815,3.287,4.103l4.225,9.06H146.558
	z M133.972,25.147v12.172h4.894c2.17,0,3.892-0.566,5.167-1.705c1.273-1.135,1.914-2.697,1.914-4.674
	c0-1.813-0.578-3.231-1.722-4.258c-1.155-1.021-2.805-1.535-4.945-1.535H133.972z"/>
<path fill="#FFFFFF" d="M174.647,51.771L157.72,28.795c-0.342-0.462-0.643-0.928-0.909-1.393l-0.264-0.389h-0.077
	c0.028,0.342,0.045,0.755,0.045,1.249v23.508h-1.961V23.344h1.498l16.812,22.779c0.378,0.499,0.777,1.106,1.213,1.825h0.1
	c-0.066-0.927-0.1-1.722-0.1-2.383V23.344h1.962v28.427H174.647z"/>
<path fill="#FFFFFF" d="M183.414,51.771V23.344h8.087c2.46,0,4.41,0.601,5.848,1.804c1.441,1.201,2.158,2.766,2.158,4.698
	c0,1.613-0.431,3.016-1.303,4.207c-0.871,1.185-2.078,2.03-3.613,2.532v0.08c1.922,0.228,3.457,0.949,4.605,2.174
	c1.154,1.22,1.723,2.81,1.723,4.765c0,2.431-0.877,4.404-2.614,5.911c-1.751,1.502-3.948,2.256-6.601,2.256H183.414z
	 M186.744,26.358v9.178h3.405c1.829,0,3.266-0.442,4.309-1.319c1.044-0.88,1.561-2.119,1.561-3.716c0-2.765-1.813-4.143-5.447-4.143
	H186.744z M186.744,38.527v10.236h4.522c1.955,0,3.467-0.466,4.547-1.391c1.077-0.927,1.613-2.194,1.613-3.812
	c0-3.357-2.28-5.034-6.855-5.034H186.744z"/>
<path fill="#FFFFFF" d="M214.737,52.249c-2.998,0-5.397-0.948-7.183-2.848c-1.792-1.895-2.689-4.41-2.689-7.543
	c0-3.41,0.932-6.073,2.795-7.987c1.865-1.918,4.382-2.874,7.555-2.874c3.024,0,5.392,0.932,7.086,2.795
	c1.699,1.862,2.551,4.448,2.551,7.751c0,3.24-0.923,5.83-2.748,7.783C220.272,51.274,217.815,52.249,214.737,52.249z
	 M214.975,33.728c-2.084,0-3.735,0.714-4.958,2.134c-1.213,1.427-1.82,3.38-1.82,5.88c0,2.406,0.615,4.304,1.845,5.689
	c1.224,1.385,2.874,2.084,4.934,2.084c2.102,0,3.721-0.686,4.844-2.047c1.132-1.359,1.698-3.296,1.698-5.808
	c0-2.538-0.566-4.489-1.698-5.867C218.695,34.416,217.076,33.728,214.975,33.728z"/>
<path fill="#FFFFFF" d="M244.876,31.473l-6.823,10.269l6.702,10.029h-3.788l-3.986-6.579c-0.247-0.408-0.551-0.929-0.891-1.547
	h-0.081c-0.063,0.12-0.375,0.633-0.928,1.547l-4.066,6.579h-3.747l6.923-9.953l-6.629-10.345h3.791l3.922,6.935
	c0.287,0.521,0.571,1.051,0.853,1.589h0.081l5.072-8.523H244.876z"/>
</svg>
