<svg id="Ebene_2" data-name="Ebene 2" xmlns="http://www.w3.org/2000/svg" viewBox="0 0 441.54 503.2"><defs><style>.cls-1{fill:#fff;}</style></defs><title>wand-white</title><rect class="cls-1" x="272.16" y="182.61" width="80.59" height="348.09" transform="translate(763.12 382.9) rotate(135)"/><rect class="cls-1" x="93.01" y="132.92" width="80.59" height="89.17" transform="translate(330.62 203.75) rotate(135)"/><path class="cls-1" d="M334,187.32c0-47.53,53.65-53.64,53.65-53.64S334,133.68,334,80c0,53.65-53.64,53.65-53.64,53.65S334,139.79,334,187.32Z" transform="translate(-22.47 -5.01)"/><path class="cls-1" d="M187,82.21c0-34.2,38.6-38.6,38.6-38.6S187,43.61,187,5c0,38.6-38.6,38.6-38.6,38.6S187,48,187,82.21Z" transform="translate(-22.47 -5.01)"/><path class="cls-1" d="M64.9,392.16c0-37.59,42.42-42.42,42.42-42.42s-42.42,0-42.42-42.43c0,42.43-42.43,42.43-42.43,42.43S64.9,354.57,64.9,392.16Z" transform="translate(-22.47 -5.01)"/></svg>