<?xml version="1.0" encoding="UTF-8" standalone="no"?>
<svg
   xmlns:dc="http://purl.org/dc/elements/1.1/"
   xmlns:cc="http://creativecommons.org/ns#"
   xmlns:rdf="http://www.w3.org/1999/02/22-rdf-syntax-ns#"
   xmlns:svg="http://www.w3.org/2000/svg"
   xmlns="http://www.w3.org/2000/svg"
   xmlns:sodipodi="http://sodipodi.sourceforge.net/DTD/sodipodi-0.dtd"
   xmlns:inkscape="http://www.inkscape.org/namespaces/inkscape"
   version="1.1"
   x="0px"
   y="0px"
   viewBox="0 0 397 570"
   enable-background="new 0 0 397 456"
   xml:space="preserve"
   id="svg8"
   sodipodi:docname="noun_85574_cc.svg"
   inkscape:version="0.92.1 r15371"><metadata
     id="metadata14"><rdf:RDF><cc:Work
         rdf:about=""><dc:format>image/svg+xml</dc:format><dc:type
           rdf:resource="http://purl.org/dc/dcmitype/StillImage" /></cc:Work></rdf:RDF></metadata><defs
     id="defs12" /><sodipodi:namedview
     pagecolor="#ffffff"
     bordercolor="#666666"
     borderopacity="1"
     objecttolerance="10"
     gridtolerance="10"
     guidetolerance="10"
     inkscape:pageopacity="0"
     inkscape:pageshadow="2"
     inkscape:window-width="1920"
     inkscape:window-height="1016"
     id="namedview10"
     showgrid="false"
     inkscape:zoom="0.41403509"
     inkscape:cx="203.33051"
     inkscape:cy="285"
     inkscape:window-x="0"
     inkscape:window-y="27"
     inkscape:window-maximized="1"
     inkscape:current-layer="svg8" /><path
     d="M392.846,156.844c-1.262,2.05-2.391,4.22-3.516,6.012c-2.855,4.547-5.64,9.145-8.729,13.538  c-4.45,6.328-9.446,13.652-16.912,16.633c5.871-3.407,10.288-11.256,14.251-16.655c13.959-19.019,18.786-44.658,16.715-67.844  c-0.81-9.049-2.919-18.837-6.479-27.232c-1.643,32.007-11.861,65.857-37.67,86.861c-4.135,3.366-8.656,6.151-13.441,8.409  c15.382-9.407,24.678-24.335,29.979-33.589c7.604-18.683,12.725-37.876,10.61-58.398c-2.275-22.086-21.174-52.798-31.714-55.323  c10.611,16.279,15.193,36.561,14.193,54.561c-4.137,25.508-8.752,62.895-39.725,79.755c27.344-20.354,32.956-63.007,32.725-82.755  c-0.006,0.126-0.01,0.217-0.014,0.307c0.043-3.108-0.256-25.94-13.109-46.52c-9.76-15.628-26.98-23.737-43.877-28.787  c8.822,7.817,15,17,22.99,28.631c5.947,10.027,20.379,40.458,9.77,86.009c-5.918,25.41-18.813,39.161-34.057,45.595  c15.185-9.791,27.13-26.442,30.297-46.235c2.417-15.105,4.178-42.969-3.25-64.22c-3.602-10.304-9.602-18.304-13.936-24.316  c-2.015-2.795-4.719-5.021-7.16-7.452c-8.752-8.713-19.822-14.227-31.52-17.823c-4.346-1.335-6.691-2.872-12.691-3.872  c-4.932-0.822-10,0-6,2c1.406,0.703,4.361,3.01,5.498,3.979c22.285,19.002,36.887,43.475,42.684,71.425  c2.818,13.596,5.314,24.888,3.818,37.596c-2,17-3,38-33,51c-2.176,0.943-4.364,1.72-6.555,2.341  c-0.268-0.022-0.536-0.037-0.803-0.061c-1.613,0.23-3.217,0.353-4.811,0.419c-2.042-0.105-4.051-0.355-6.022-0.728  c-0.465-0.285-0.937-0.562-1.394-0.854c-11.64-7.446-17.358-16.897-17.147-30.621c2.489,2.46,5.231,5.546,6.041,9.065  c-1.896-12.217-5.374-25.65-15.551-33.783c7.833-0.033,15.636-0.625,23.429-1.37c-10.654-3.261-20.304-8.977-30.303-13.746  c9.063-1.526,18.166-3.691,26.224-8.258c-10.495-0.686-21.309-1.07-31.546-3.691c-3.143-0.804-8.787-2.048-11.023-4.804  c-0.359-0.443-1.055-0.76-1.521-1.094c5.015-5.791,9.157-13.853,1.411-19.335c1.216,11.961-5.004,14.551-15.544,13.909  c-14.136-0.86-30.773-2.572-43.705,4.439c-2.906,1.576-7.383,4.192-8.072,7.798c-10.517,4.114-21.069,9.21-24.853,20.654  c0.169,0.587,24.669,0.233,36.993,0.655c9.51,0.326,19.948,0.446,28.84,4.26c21.368,9.164,12.096,36.662,2.244,51.136  c-0.629,0.924-1.28,1.827-1.944,2.718c-0.124,0.038-0.24,0.085-0.365,0.122c-1.314,1.04-2.718,1.849-4.227,2.526  c-25.774,3.342-46.32-2.585-63.992-28.54c-2.859-4.2-5.625-8.706-7.185-13.479c-1.424-4.356-3.315-10.155-4.315-19.155  c-0.569-5.124,0.05-20.931,1-26c3-16,15.75-51.549,45.474-74.18c1.721-1.31,8.526-4.82,8.526-6.82c-3-1-6-1-13,1  c-4.338,1.273-8.743,2.355-13.002,3.854c-15.551,5.473-26.822,15.888-38.746,32.307c-10.076,18.581-26.488,52.904-2.002,101  c8.966,17.612,21.418,28.143,34.598,33.738c-15.292-4.3-30.126-14.492-40.24-34.36C52.003,91.1,72.529,45.325,72.133,45.817  c0.083-0.201,5.375-12.148,9.214-18.622c2.18-3.674,5.075-7.872,8-11c2.724-2.912,10.408-8.842,13-12  C83.976,8.364,66.532,19.804,56.503,36.287C41.347,61.195,44.348,90.356,44.347,90.195c-0.521,10.54,1,37,23.141,70  c6.123,9.126,14.204,17.058,23.325,22.634c-10.246-4.729-19.465-12.01-26.572-22.012c-22.395-31.518-23.108-62-24.108-75  c-0.03-10.067,0.88-17.514,2.102-27.537c1.196-9.825,4.669-19.372,7.471-30.324C35.493,46.074,23.002,63.403,20.638,86.451  c-2.328,22.688,3.568,43.074,13.954,62.713c-0.288-0.402-0.563-0.807-0.842-1.211c4.424,8.341,14.111,26.711,31.224,39.484  c-11.507-6.292-21.728-14.927-28.935-25.547c-13.922-20.517-17.906-40.073-20.906-56.073c-0.74-3.947-2.214-25.061-3-29  C5.648,93.591,0.891,111.435,3.39,129.505c2.129,15.398,6.957,31.114,15.766,44.045c4.895,7.185,10.965,13.433,17.033,19.62  c-9.434-5.192-16.938-13.073-22.899-21.947c-4.982-7.417-7.584-16.051-12.283-23.502c-0.433,31.905,18.601,66.855,48.011,80.632  c9.784,4.583,20.135,7.885,30.38,11.258c-15.229-0.111-29.208-1.683-40.913-12.25c0.61,9.898,9.239,14.977,16.808,19.963  c7.75,5.106,16.595,8.344,25.591,10.504c10.771,2.585,22.042,3.328,33.085,3.664c10.708,0.326,21.809-0.874,32.354,1.449  c10.3,2.271,19.31,8.701,24.979,17.549c-5.61,10.412-11.186,20.896-12.745,32.778c-1.299,9.896-0.321,19.841,0.772,29.703  c0.781,7.041,1.511,14.085,2.181,21.138c8.923-10.627,9.795-26.297,11.503-39.391c1.66,5.729-0.157,13.246-0.25,19.068  c-0.142,8.958,0.636,17.919,2.217,26.734c3.312,18.464,11.365,35.948,13.735,54.528c0.698,5.47,0.83,10.95,0.398,16.448  c-0.351,4.473-2.743,9.751-0.995,14.104c9.518-13.755,13.802-25.475,12.375-42.345c-1.433-16.938-4.902-33.237-7.87-49.915  c-1.633-9.182-1.355-18.158-0.414-27.396c-0.92,22.896,7.677,45.204,16.719,65.921c2.433-14.803,7.082-28.936,10.193-43.57  c3.257-15.32,2.897-29.078-1.905-44.004c6.963,4.84,9.364,13.688,10.632,21.686c8.215-13.545,5.188-24.18,1.186-38.701  c-3.945-14.318-2.623-27.615,13.008-33.111c13.876-4.878,29.514-2.785,43.926-2.899c15.704-0.124,31.944-1.563,46.718-7.239  c13.819-5.311,22.448-14.473,29.415-27.215c-15.859,9.379-30.485,16.285-49.242,12.486c17.11-3.693,34.1-7.869,48.304-18.636  c14.032-10.637,25.427-25.957,31.084-42.666c2.873-8.485,3.882-17.29,4.585-26.175C395.318,153.119,394.024,154.929,392.846,156.844  z"
     id="path2" /><text
     x="0"
     y="471"
     fill="#000000"
     font-size="5px"
     font-weight="bold"
     font-family="'Helvetica Neue', Helvetica, Arial-Unicode, Arial, Sans-serif"
     id="text4">Created by Design Rails</text>
<text
     x="0"
     y="476"
     fill="#000000"
     font-size="5px"
     font-weight="bold"
     font-family="'Helvetica Neue', Helvetica, Arial-Unicode, Arial, Sans-serif"
     id="text6">from the Noun Project</text>
<path
     style="fill:#ffffff;fill-opacity:1;stroke-width:2.41525435"
     d="m 189.5223,430.59061 c -0.83073,-9.80301 -4.34824,-27.06201 -7.8167,-38.35332 -4.41779,-14.3818 -6.51524,-27.24733 -7.00404,-42.96209 -0.38377,-12.33784 -1.2498,-22.98447 -1.92452,-23.65917 -0.67471,-0.67473 -1.96521,4.52898 -2.86776,11.56377 -0.90256,7.03479 -3.09008,15.45239 -4.86115,18.70579 -2.93641,5.39403 -3.36346,3.9044 -4.84685,-16.90678 -1.63249,-22.90304 -0.51303,-29.70094 8.61065,-52.28789 2.77557,-6.8713 2.59998,-8.30524 -1.58298,-12.92736 -9.12343,-10.08127 -17.4439,-12.32758 -52.88804,-14.27828 -35.606936,-1.95969 -47.43917,-5.10348 -64.243758,-17.0694 -10.110652,-7.19942 -8.848196,-9.60905 2.911662,-5.55745 5.528155,1.9046 13.951354,3.13606 18.71822,2.73657 8.194093,-0.68672 7.646828,-1.10173 -10.029063,-7.60528 C 37.67172,223.14966 21.969437,208.934 11.937882,186.94068 7.9995131,178.30614 4.1304145,166.89407 3.3398848,161.58051 l -1.4373265,-9.66102 5.3760835,10.86865 c 5.6513062,11.42505 25.3136782,32.90768 27.8228222,30.39853 0.806229,-0.80623 -1.307778,-4.44341 -4.697795,-8.08263 C 8.1644784,161.23005 -1.3938654,122.7695 7.7506088,93.95339 l 3.0658172,-9.661017 1.670547,9.661017 c 5.133193,29.686 7.824446,39.5017 14.809469,54.01397 4.869279,10.11654 12.259993,20.25987 20.037896,27.50086 16.127841,15.01453 21.135513,14.80149 7.011437,-0.29829 C 33.053732,152.40701 19.677971,117.27786 21.956127,90.104037 23.289236,74.202721 31.934042,52.65988 41.733926,40.817797 c 3.919383,-4.736142 3.96928,-4.71255 2.554149,1.207627 -6.339354,26.520597 -5.746965,61.763556 1.420906,84.533896 5.186734,16.47681 17.569673,36.69764 28.207182,46.06115 15.513791,13.65578 17.704625,11.6812 3.593722,-3.239 C 55.343717,145.94402 43.864932,113.24819 45.968005,79.538517 47.766164,50.716223 56.728025,32.337658 76.158023,17.62624 90.190281,7.0017213 92.012899,9.3034453 81.925791,24.910162 50.938825,72.853024 61.633866,145.91278 102.927,168.3732 c 6.86854,3.73598 12.48825,5.71123 12.48825,4.38945 0,-1.32178 -2.07349,-3.06134 -4.60776,-3.86568 C 103.2914,166.51146 86.437109,146.49351 80.343434,132.71463 71.898657,113.61949 68.78609,93.037306 71.826992,76.398752 77.574792,44.949183 99.88109,15.551259 124.3129,7.2265049 143.68143,0.62698176 144.33701,2.419448 128.4936,18.657212 118.38567,29.016722 110.6108,40.093527 104.33584,53.074584 95.991905,70.335759 94.987729,74.495203 94.113526,95.416877 93.304616,114.776 93.943081,120.4239 97.969407,129.52608 c 6.088413,13.76387 20.505833,29.84537 32.026043,35.72255 11.38775,5.80959 30.66367,8.31889 39.06048,5.08481 12.18824,-4.69437 22.02813,-32.60596 16.33785,-46.34352 -4.73876,-11.44037 -13.94568,-14.65922 -46.17763,-16.14425 -15.74727,-0.72553 -28.6314,-2.19535 -28.6314,-3.26626 0,-1.07091 2.44544,-3.66801 5.43432,-5.77133 2.98887,-2.103317 9.23835,-6.492931 13.88771,-9.754698 15.94906,-11.189078 22.98246,-13.214399 45.89009,-13.214399 20.44615,0 22.03701,-0.359069 24.07702,-5.434322 2.06073,-5.126822 2.19299,-5.154155 2.33742,-0.483051 0.0842,2.723199 -1.05644,6.160807 -2.53476,7.639131 -1.47832,1.478321 -2.04023,3.735743 -1.24868,5.016495 1.90548,3.08313 20.63713,7.70553 32.17767,7.940464 l 9.19531,0.187183 -12.07627,4.267768 -12.07627,4.267769 12.07627,6.30123 12.07627,6.30122 -9.43154,0.11246 c -8.90072,0.10612 -9.21175,0.35531 -5.52644,4.42754 6.10291,6.74364 11.739,21.71553 8.57209,22.77117 -4.87681,1.6256 0.49979,16.37934 9.10491,24.98446 9.73613,9.73614 16.23152,10.41541 30.58695,3.19872 20.50811,-10.30974 28.01168,-22.6041 30.02245,-49.19082 2.645,-34.973169 -12.4587,-76.695874 -36.78323,-101.610595 -7.06358,-7.2349471 -11.69003,-13.1544491 -10.28099,-13.1544491 1.40903,0 9.19465,2.4025672 17.30138,5.3390381 17.60378,6.376555 36.04511,23.491154 44.99556,41.75842 5.37404,10.968046 5.90955,14.957655 5.83528,43.474576 -0.0952,36.52171 -2.23,43.1844 -19.9251,62.18238 -10.61354,11.39504 -10.84949,11.9209 -3.70353,8.25414 10.19955,-5.23362 21.53526,-19.37153 26.35089,-32.86481 2.15996,-6.05215 4.51174,-21.65103 5.2262,-34.664176 1.66539,-30.334154 -3.14877,-49.484244 -17.83117,-70.930098 -5.76253,-8.417039 -9.89784,-15.303707 -9.18956,-15.303707 3.72664,0 20.17474,10.066147 26.24231,16.060158 9.75862,9.640316 18.04765,28.857928 19.83885,45.995145 2.97722,28.484428 -7.80095,65.652378 -23.8531,82.256138 -9.00814,9.31773 -5.3308,10.49969 5.17184,1.66231 17.58068,-14.79317 32.61897,-65.612441 27.33152,-92.362126 -1.49591,-7.567962 -3.49581,-16.477091 -4.44426,-19.798066 -2.92362,-10.237157 4.55966,-2.008651 12.58473,13.837987 6.4568,12.749888 7.04279,15.995371 6.87732,38.089979 -0.23452,31.327776 -5.78777,46.330856 -24.78027,66.949416 -12.03176,13.06187 -12.70854,14.29049 -5.60846,10.18131 19.41499,-11.23646 34.35151,-35.52483 41.30285,-67.16289 l 4.31275,-19.628853 1.85709,11.796877 c 2.70622,17.190846 -0.0319,46.924276 -5.47512,59.453126 -2.59705,5.97775 -8.75054,16.13805 -13.67447,22.57843 -4.9239,6.44039 -8.49944,12.16289 -7.94567,12.71668 1.71676,1.71676 13.21904,-10.99851 21.19974,-23.43535 4.18571,-6.52287 8.01336,-11.85976 8.50588,-11.85976 0.49249,0 0.24522,3.53231 -0.54952,7.84957 -3.85434,20.93817 -20.10996,45.443 -37.37534,56.34215 -5.16499,3.26053 -17.26464,8.5124 -26.88806,11.67083 -14.74017,4.83775 -16.54572,5.98362 -11.459,7.27225 5.30892,1.34492 20.30968,-1.61285 35.02119,-6.9053 2.85157,-1.02585 0.71672,2.10409 -5.21111,7.64008 -13.82201,12.90837 -22.83108,15.26325 -66.47272,17.37529 -28.89676,1.39846 -39.32116,2.78341 -43.99341,5.84477 -9.02499,5.91341 -11.88177,12.8927 -10.19023,24.89538 0.81503,5.78323 2.16096,15.35536 2.99096,21.27141 0.83,5.91604 0.74877,12.70895 -0.18051,15.09534 -1.41522,3.63425 -2.22973,3.06411 -5.01538,-3.51067 -5.3883,-12.71767 -7.83907,-9.17152 -6.50899,9.41816 0.9351,13.06921 -0.14684,23.12345 -4.44983,41.35118 l -5.68533,24.08347 -4.56815,-10.55671 c -2.51249,-5.80618 -6.5285,-19.79504 -8.92449,-31.08636 -3.77187,-17.77528 -4.38748,-19.12364 -4.58841,-10.04992 -0.12764,5.76389 2.05068,23.69715 4.84071,39.8517 5.22255,30.23917 4.9514,44.89327 -1.04236,56.33276 -3.10981,5.93529 -3.36675,5.31641 -4.79625,-11.5524 z"
     id="path16"
     inkscape:connector-curvature="0" /></svg>